<svg width="187" height="80" viewBox="0 0 187 80" fill="none" xmlns="http://www.w3.org/2000/svg">
<path d="M41.3502 30.3235V52.3207H51.3643V59.8594H41.3502V78.706H32.2363L32.18 59.8594H0V52.9958L22.7286 0L30.6048 3.31927L10.0141 52.3207H32.2363L33.474 30.3235H41.3502Z" fill="#D2DAE2"/>
<path d="M93.1206 0C101.447 0 107.748 3.45054 112.024 10.3516C116.337 17.2527 118.493 27.1167 118.493 39.9437C118.493 52.8083 116.337 62.7098 112.024 69.6484C107.748 76.5495 101.447 80 93.1206 80C84.7943 80 78.4746 76.5495 74.1614 69.6484C69.8857 62.7098 67.7479 52.8083 67.7479 39.9437C67.7479 27.1167 69.8857 17.2527 74.1614 10.3516C78.4746 3.45054 84.7943 0 93.1206 0ZM93.1206 7.59493C88.3574 7.59493 84.6068 10.1266 81.8689 15.1899C79.1309 20.2157 77.762 28.4669 77.762 39.9437C77.762 48.5326 78.4183 55.2836 79.731 60.1969L103.416 12.602C101.053 9.26395 97.6213 7.59493 93.1206 7.59493ZM108.536 39.9437C108.536 31.2799 107.86 24.5101 106.51 19.6343L82.9378 67.398C85.3007 70.6985 88.6949 72.3488 93.1206 72.3488C97.9214 72.3488 101.691 69.8172 104.429 64.7539C107.167 59.6906 108.536 51.4205 108.536 39.9437Z" fill="#D2DAE2"/>
<path d="M176.283 30.3235V52.3207H186.298V59.8594H176.283V78.706H167.17L167.113 59.8594H134.933V52.9958L157.662 0L165.538 3.31927L144.947 52.3207H167.17L168.407 30.3235H176.283Z" fill="#D2DAE2"/>
</svg>
