<svg width="144" height="126" viewBox="0 0 144 126" fill="none" xmlns="http://www.w3.org/2000/svg">
<path d="M72 2L142 123.244H2L72 2Z" stroke="#F37865" stroke-width="4" stroke-linecap="round" stroke-linejoin="round"/>
<path d="M71.2153 78.9053V50.6544" stroke="#F37865" stroke-width="4" stroke-linecap="round" stroke-linejoin="round"/>
<path d="M71.0464 89.8924C72.3003 89.8718 73.5125 90.343 74.4236 91.2053C75.3346 92.0675 75.8722 93.2523 75.9212 94.5061C75.9438 95.1207 75.8438 95.7337 75.6272 96.3093C75.4105 96.8848 75.0815 97.4115 74.6592 97.8584C74.237 98.3054 73.7301 98.6638 73.1679 98.9127C72.6058 99.1616 71.9998 99.296 71.3852 99.3081C70.1313 99.3287 68.9191 98.8575 68.0081 97.9953C67.097 97.133 66.5595 95.9482 66.5105 94.6944C66.4878 94.0798 66.5878 93.4668 66.8045 92.8913C67.0211 92.3157 67.3502 91.7891 67.7724 91.3421C68.1946 90.8951 68.7016 90.5367 69.2637 90.2878C69.8258 90.0389 70.4318 89.9045 71.0464 89.8924Z" fill="#F37865"/>
</svg>
