<?xml version="1.0" encoding="UTF-8" standalone="no" ?>
<svg viewBox="0 0 417 443" xmlns="http://www.w3.org/2000/svg">
    <path d="M357.643427,118.328427 L415.626183,176.311183 C417.18828,177.87328 417.18828,180.40594 415.626183,181.968037 C414.064086,183.530134 411.531426,183.530134 409.969329,181.968037 L351.986573,123.985281 C350.424476,122.423184 350.424476,119.890524 351.986573,118.328427 C353.54867,116.76633 356.08133,116.76633 357.643427,118.328427 Z M223.293427,111.257427 L281.276183,169.240183 C282.83828,170.80228 282.83828,173.33494 281.276183,174.897037 C279.714086,176.459134 277.181426,176.459134 275.619329,174.897037 L217.636573,116.914281 C216.074476,115.352184 216.074476,112.819524 217.636573,111.257427 C219.19867,109.69533 221.73133,109.69533 223.293427,111.257427 Z M243.799427,284.498427 L301.782183,342.481183 C303.34428,344.04328 303.34428,346.57594 301.782183,348.138037 C300.220086,349.700134 297.687426,349.700134 296.125329,348.138037 L238.142573,290.155281 C236.580476,288.593184 236.580476,286.060524 238.142573,284.498427 C239.70467,282.93633 242.23733,282.93633 243.799427,284.498427 Z M154.703427,373.593427 L212.686183,431.576183 C214.24828,433.13828 214.24828,435.67094 212.686183,437.233037 C211.124086,438.795134 208.591426,438.795134 207.029329,437.233037 L149.046573,379.250281 C147.484476,377.688184 147.484476,375.155524 149.046573,373.593427 C150.60867,372.03133 153.14133,372.03133 154.703427,373.593427 Z M102.377427,143.076427 L160.360183,201.059183 C161.92228,202.62128 161.92228,205.15394 160.360183,206.716037 C158.798086,208.278134 156.265426,208.278134 154.703329,206.716037 L96.7205728,148.733281 C95.1584757,147.171184 95.1584757,144.638524 96.7205728,143.076427 C98.28267,141.51433 100.81533,141.51433 102.377427,143.076427 Z M13.2820271,232.172427 L71.2647832,290.155183 C72.8268803,291.71728 72.8268803,294.24994 71.2647832,295.812037 C69.702686,297.374134 67.1700261,297.374134 65.6079289,295.812037 L7.62517287,237.829281 C6.0630757,236.267184 6.0630757,233.734524 7.62517287,232.172427 C9.18727003,230.61033 11.71993,230.61033 13.2820271,232.172427 Z M175.916427,267.527427 L233.899183,325.510183 C235.46128,327.07228 235.46128,329.60494 233.899183,331.167037 C232.337086,332.729134 229.804426,332.729134 228.242329,331.167037 L170.259573,273.184281 C168.697476,271.622184 168.697476,269.089524 170.259573,267.527427 C171.82167,265.96533 174.35433,265.96533 175.916427,267.527427 Z M211.272427,175.603427 L269.255183,233.586183 C270.81728,235.14828 270.81728,237.68094 269.255183,239.243037 C267.693086,240.805134 265.160426,240.805134 263.598329,239.243037 L205.615573,181.260281 C204.053476,179.698184 204.053476,177.165524 205.615573,175.603427 C207.17767,174.04133 209.71033,174.04133 211.272427,175.603427 Z M204.202427,41.2534271 L262.185183,99.2361831 C263.74728,100.79828 263.74728,103.33094 262.185183,104.893037 C260.623086,106.455135 258.090426,106.455135 256.528329,104.893037 L198.545573,46.9102813 C196.983475,45.3481841 196.983475,42.8155242 198.545573,41.2534271 C200.10767,39.6913299 202.64033,39.6913299 204.202427,41.2534271 Z M108.034427,174.189427 L166.017183,232.172183 C167.57928,233.73428 167.57928,236.26694 166.017183,237.829037 C164.455086,239.391134 161.922426,239.391134 160.360329,237.829037 L102.377573,179.846281 C100.815476,178.284184 100.815476,175.751524 102.377573,174.189427 C103.93967,172.62733 106.47233,172.62733 108.034427,174.189427 Z M280.569427,143.077427 L338.552183,201.060183 C340.11428,202.62228 340.11428,205.15494 338.552183,206.717037 C336.990086,208.279134 334.457426,208.279134 332.895329,206.717037 L274.912573,148.734281 C273.350476,147.172184 273.350476,144.639524 274.912573,143.077427 C276.47467,141.51533 279.00733,141.51533 280.569427,143.077427 Z M149.047427,317.025427 L207.030183,375.008183 C208.59228,376.57028 208.59228,379.10294 207.030183,380.665037 C205.468086,382.227134 202.935426,382.227134 201.373329,380.665037 L143.390573,322.682281 C141.828476,321.120184 141.828476,318.587524 143.390573,317.025427 C144.95267,315.46333 147.48533,315.46333 149.047427,317.025427 Z M96.7214271,86.5084268 L154.704183,144.491183 C156.26628,146.05328 156.26628,148.58594 154.704183,150.148037 C153.142086,151.710134 150.609426,151.710134 149.047329,150.148037 L91.0645728,92.1652811 C89.5024757,90.6031839 89.5024757,88.070524 91.0645728,86.5084268 C92.62667,84.9463297 95.1593299,84.9463297 96.7214271,86.5084268 Z" fill="#EBF6FC"></path>
    <path d="M322.994,114.793 C324.556,113.23 327.089,113.23 328.651,114.793 L386.634,172.775 C388.196,174.337 388.196,176.87 386.634,178.432 C385.071,179.994 382.539,179.994 380.977,178.432 L322.994,120.449 C321.432,118.887 321.432,116.355 322.994,114.793 Z M152.582,40.5463 C151.02,38.9842 148.488,38.9842 146.926,40.5463 C145.363,42.1084 145.363,44.6411 146.926,46.2032 L204.908,104.186 C206.47,105.748 209.003,105.748 210.565,104.186 C212.127,102.624 212.127,100.091 210.565,98.529 L152.582,40.5463 Z M294.002,181.968 C292.44,180.406 289.908,180.406 288.346,181.968 C286.783,183.53 286.783,186.062 288.346,187.625 L346.328,245.607 C347.89,247.169 350.423,247.169 351.985,245.607 C353.547,244.045 353.547,241.513 351.985,239.95 L294.002,181.968 Z M265.012,178.432 C263.45,176.87 260.917,176.87 259.355,178.432 C257.793,179.994 257.793,182.527 259.355,184.089 L317.338,242.072 C318.9,243.634 321.433,243.634 322.995,242.072 C324.557,240.51 324.557,237.977 322.995,236.415 L265.012,178.432 Z M322.994,140.248 C324.556,138.686 327.089,138.686 328.651,140.248 L386.634,198.231 C388.196,199.793 388.196,202.326 386.634,203.888 C385.071,205.45 382.539,205.45 380.977,203.888 L322.994,145.905 C321.432,144.343 321.432,141.81 322.994,140.248 Z M265.012,203.888 C263.45,202.326 260.917,202.326 259.355,203.888 C257.793,205.45 257.793,207.983 259.355,209.545 L317.338,267.528 C318.9,269.09 321.433,269.09 322.995,267.528 C324.557,265.965 324.557,263.433 322.995,261.871 L265.012,203.888 Z M170.26,292.983 C171.822,291.421 174.354,291.421 175.916,292.983 L233.899,350.966 C235.461,352.528 235.461,355.061 233.899,356.623 C232.337,358.185 229.804,358.185 228.242,356.623 L170.26,298.64 C168.697,297.078 168.697,294.546 170.26,292.983 Z M246.768,363.835 C245.206,362.273 242.673,362.273 241.111,363.835 C239.549,365.397 239.549,367.93 241.111,369.492 L299.094,427.474 C300.656,429.036 303.189,429.036 304.751,427.474 C306.313,425.912 306.313,423.38 304.751,421.818 L246.768,363.835 Z M241.404,338.086 C242.966,336.524 245.499,336.524 247.061,338.086 L305.044,396.069 C306.606,397.631 306.606,400.164 305.044,401.726 C303.482,403.288 300.949,403.288 299.387,401.726 L241.404,343.743 C239.842,342.181 239.842,339.648 241.404,338.086 Z M205.616,220.858 C204.054,219.296 201.521,219.296 199.959,220.858 C198.397,222.421 198.397,224.953 199.959,226.515 L257.942,284.498 C259.504,286.06 262.036,286.06 263.598,284.498 C265.16,282.936 265.16,280.403 263.598,278.841 L205.616,220.858 Z M270.808,291.71 C272.37,290.148 274.903,290.148 276.465,291.71 L334.448,349.693 C336.01,351.255 336.01,353.787 334.448,355.349 C332.886,356.912 330.353,356.912 328.791,355.349 L270.808,297.367 C269.246,295.805 269.246,293.272 270.808,291.71 Z M137.733,331.167 C136.171,329.605 133.638,329.605 132.076,331.167 C130.514,332.729 130.514,335.262 132.076,336.824 L190.059,394.807 C191.621,396.369 194.153,396.369 195.716,394.807 C197.278,393.245 197.278,390.712 195.716,389.15 L137.733,331.167 Z M269.254,111.964 C270.816,110.402 273.348,110.402 274.911,111.964 L332.893,169.947 C334.455,171.509 334.455,174.042 332.893,175.604 C331.331,177.166 328.799,177.166 327.236,175.604 L269.254,117.621 C267.692,116.059 267.692,113.526 269.254,111.964 Z M122.176,264.699 C120.614,263.137 118.081,263.137 116.519,264.699 C114.957,266.261 114.957,268.794 116.519,270.356 L174.502,328.339 C176.064,329.901 178.597,329.901 180.159,328.339 C181.721,326.777 181.721,324.244 180.159,322.682 L122.176,264.699 Z M167.431,213.787 C168.994,212.225 171.526,212.225 173.088,213.787 L231.071,271.77 C232.633,273.332 232.633,275.865 231.071,277.427 C229.509,278.989 226.976,278.989 225.414,277.427 L167.431,219.444 C165.869,217.882 165.869,215.35 167.431,213.787 Z M83.993,302.883 C82.43,301.321 79.898,301.321 78.336,302.883 C76.774,304.445 76.774,306.978 78.336,308.54 L136.318,366.523 C137.881,368.085 140.413,368.085 141.975,366.523 C143.537,364.96 143.537,362.428 141.975,360.866 L83.993,302.883 Z M204.201,72.366 C205.763,70.804 208.296,70.804 209.858,72.366 L267.841,130.349 C269.403,131.911 269.403,134.444 267.841,136.006 C266.278,137.568 263.746,137.568 262.184,136.006 L204.201,78.023 C202.639,76.461 202.639,73.928 204.201,72.366 Z M167.43,157.219 C165.868,155.657 163.335,155.657 161.773,157.219 C160.211,158.781 160.211,161.314 161.773,162.876 L219.756,220.859 C221.318,222.421 223.851,222.421 225.413,220.859 C226.975,219.296 226.975,216.764 225.413,215.202 L167.43,157.219 Z M72.679,246.314 C74.242,244.752 76.774,244.752 78.336,246.314 L136.319,304.297 C137.881,305.859 137.881,308.392 136.319,309.954 C134.757,311.516 132.224,311.516 130.662,309.954 L72.679,251.971 C71.117,250.409 71.117,247.876 72.679,246.314 Z M18.9379,263.285 C17.3758,261.723 14.8432,261.723 13.2811,263.285 C11.719,264.847 11.719,267.38 13.2811,268.942 L71.264,326.925 C72.826,328.487 75.359,328.487 76.921,326.925 C78.483,325.362 78.483,322.83 76.921,321.268 L18.9379,263.285 Z M42.273,317.732 C43.835,316.17 46.368,316.17 47.93,317.732 L105.913,375.715 C107.475,377.277 107.475,379.81 105.913,381.372 C104.351,382.934 101.818,382.934 100.256,381.372 L42.273,323.389 C40.711,321.827 40.711,319.294 42.273,317.732 Z M345.621,182.675 C344.059,181.113 341.527,181.113 339.965,182.675 C338.403,184.237 338.403,186.77 339.965,188.332 L397.947,246.314 C399.509,247.876 402.042,247.876 403.604,246.314 C405.166,244.752 405.166,242.22 403.604,240.658 L345.621,182.675 Z M276.326,246.314 C277.888,244.752 280.421,244.752 281.983,246.314 L339.966,304.297 C341.528,305.859 341.528,308.392 339.966,309.954 C338.403,311.516 335.871,311.516 334.309,309.954 L276.326,251.971 C274.764,250.409 274.764,247.876 276.326,246.314 Z M192.887,335.41 C191.325,333.848 188.792,333.848 187.23,335.41 C185.668,336.972 185.668,339.505 187.23,341.067 L245.213,399.049 C246.775,400.612 249.308,400.612 250.87,399.049 C252.432,397.487 252.432,394.955 250.87,393.393 L192.887,335.41 Z M232.484,227.93 C234.046,226.367 236.579,226.367 238.141,227.93 L296.124,285.912 C297.686,287.474 297.686,290.007 296.124,291.569 C294.562,293.131 292.029,293.131 290.467,291.569 L232.484,233.586 C230.922,232.024 230.922,229.492 232.484,227.93 Z M307.871,297.074 C306.309,295.512 303.777,295.512 302.215,297.074 C300.653,298.636 300.653,301.169 302.215,302.731 L329.085,329.601 C330.647,331.163 333.179,331.163 334.742,329.601 C336.304,328.039 336.304,325.506 334.742,323.944 L307.871,297.074 Z M130.388,75.749 C131.951,74.187 134.483,74.187 136.045,75.749 L181.3,121.004 C182.862,122.566 182.862,125.099 181.3,126.661 C179.738,128.223 177.205,128.223 175.643,126.661 L130.388,81.406 C128.826,79.844 128.826,77.312 130.388,75.749 Z M155.137,67.971 C153.575,66.409 151.042,66.409 149.48,67.971 C147.918,69.533 147.918,72.066 149.48,73.628 L176.35,100.498 C177.912,102.06 180.445,102.06 182.007,100.498 C183.569,98.936 183.569,96.403 182.007,94.841 L155.137,67.971 Z M329.086,247.576 C330.648,246.014 333.18,246.014 334.743,247.576 L394.14,306.973 C395.702,308.536 395.702,311.068 394.14,312.63 C392.577,314.192 390.045,314.192 388.483,312.63 L329.086,253.233 C327.524,251.671 327.524,249.139 329.086,247.576 Z M336.157,274.447 C334.595,272.884 332.062,272.884 330.5,274.447 C328.938,276.009 328.938,278.541 330.5,280.103 L389.897,339.5 C391.459,341.062 393.992,341.062 395.554,339.5 C397.116,337.938 397.116,335.406 395.554,333.843 L336.157,274.447 Z M173.088,244.9 C174.65,243.338 177.182,243.338 178.745,244.9 L236.727,302.883 C238.289,304.445 238.289,306.978 236.727,308.54 C235.165,310.102 232.633,310.102 231.07,308.54 L173.088,250.557 C171.526,248.995 171.526,246.462 173.088,244.9 Z M246.768,312.923 C245.206,311.361 242.673,311.361 241.111,312.923 C239.549,314.485 239.549,317.018 241.111,318.58 L299.094,376.563 C300.656,378.125 303.189,378.125 304.751,376.563 C306.313,375.001 306.313,372.468 304.751,370.906 L246.768,312.923 Z M83.992,333.996 C85.554,332.433 88.087,332.433 89.649,333.996 L147.632,391.978 C149.194,393.54 149.194,396.073 147.632,397.635 C146.07,399.197 143.537,399.197 141.975,397.635 L83.992,339.652 C82.43,338.09 82.43,335.558 83.992,333.996 Z M119.075,388.291 C117.513,386.729 114.98,386.729 113.418,388.291 C111.856,389.853 111.856,392.385 113.418,393.948 L133.924,414.454 C135.486,416.016 138.019,416.016 139.581,414.454 C141.143,412.892 141.143,410.359 139.581,408.797 L119.075,388.291 Z M155.136,404.554 C156.699,402.992 159.231,402.992 160.793,404.554 L181.299,425.06 C182.862,426.622 182.862,429.155 181.299,430.717 C179.737,432.279 177.205,432.279 175.643,430.717 L155.136,410.211 C153.574,408.649 153.574,406.116 155.136,404.554 Z M71.698,189.594 C70.136,188.032 67.603,188.032 66.041,189.594 C64.479,191.156 64.479,193.688 66.041,195.251 L86.547,215.757 C88.109,217.319 90.642,217.319 92.204,215.757 C93.766,214.195 93.766,211.662 92.204,210.1 L71.698,189.594 Z M45.535,142.218 C47.097,140.655 49.63,140.655 51.192,142.218 L92.911,183.937 C94.473,185.499 94.473,188.032 92.911,189.594 C91.349,191.156 88.816,191.156 87.254,189.594 L45.535,147.874 C43.973,146.312 43.973,143.78 45.535,142.218 Z M220.19,387.584 C218.628,386.022 216.095,386.022 214.533,387.584 C212.971,389.146 212.971,391.678 214.533,393.24 L262.616,441.324 C264.178,442.886 266.711,442.886 268.273,441.324 C269.835,439.762 269.835,437.229 268.273,435.667 L220.19,387.584 Z M203.22,401.726 C204.783,400.164 207.315,400.164 208.877,401.726 L229.383,422.232 C230.946,423.794 230.946,426.327 229.383,427.889 C227.821,429.451 225.289,429.451 223.727,427.889 L203.22,407.383 C201.658,405.821 201.658,403.288 203.22,401.726 Z M257.94,69.538 C256.378,67.976 253.845,67.976 252.283,69.538 C250.721,71.1 250.721,73.632 252.283,75.195 L310.266,133.177 C311.828,134.739 314.361,134.739 315.923,133.177 C317.485,131.615 317.485,129.083 315.923,127.52 L257.94,69.538 Z M188.644,133.177 C190.206,131.615 192.739,131.615 194.301,133.177 L252.284,191.16 C253.846,192.722 253.846,195.255 252.284,196.817 C250.722,198.379 248.189,198.379 246.627,196.817 L188.644,138.834 C187.082,137.272 187.082,134.739 188.644,133.177 Z M105.205,222.273 C103.643,220.711 101.111,220.711 99.549,222.273 C97.987,223.835 97.987,226.367 99.549,227.93 L157.531,285.912 C159.093,287.474 161.626,287.474 163.188,285.912 C164.75,284.35 164.75,281.818 163.188,280.255 L105.205,222.273 Z M129.248,150.148 C130.81,148.586 133.343,148.586 134.905,150.148 L192.887,208.131 C194.45,209.693 194.45,212.225 192.887,213.787 C191.325,215.35 188.793,215.35 187.231,213.787 L129.248,155.805 C127.686,154.243 127.686,151.71 129.248,150.148 Z M67.022,260.457 C65.46,258.894 62.927,258.894 61.365,260.457 C59.803,262.019 59.803,264.551 61.365,266.113 L119.348,324.096 C120.91,325.658 123.443,325.658 125.005,324.096 C126.567,322.534 126.567,320.001 125.005,318.439 L67.022,260.457 Z M134.904,104.893 C136.466,103.331 138.999,103.331 140.561,104.893 L198.544,162.876 C200.106,164.438 200.106,166.971 198.544,168.533 C196.982,170.095 194.449,170.095 192.887,168.533 L134.904,110.55 C133.342,108.988 133.342,106.455 134.904,104.893 Z M51.465,193.989 C49.903,192.426 47.371,192.426 45.808,193.989 C44.246,195.551 44.246,198.083 45.808,199.645 L103.791,257.628 C105.353,259.19 107.886,259.19 109.448,257.628 C111.01,256.066 111.01,253.533 109.448,251.971 L51.465,193.989 Z M133.49,1.6555 C135.052,0.0934 137.585,0.0934 139.147,1.6555 L197.13,59.6382 C198.692,61.2 198.692,63.733 197.13,65.295 C195.568,66.857 193.035,66.857 191.473,65.295 L133.49,7.3123 C131.928,5.7502 131.928,3.2176 133.49,1.6555 Z M7.6254,175.604 C6.0633,174.042 3.5306,174.042 1.9685,175.604 C0.4065,177.166 0.4065,179.698 1.9685,181.261 L59.951,239.243 C61.513,240.805 64.046,240.805 65.608,239.243 C67.17,237.681 67.17,235.149 65.608,233.586 L7.6254,175.604 Z M31.666,103.479 C33.228,101.917 35.761,101.917 37.323,103.479 L95.305,161.462 C96.868,163.024 96.868,165.556 95.305,167.118 C93.743,168.681 91.211,168.681 89.649,167.118 L31.666,109.136 C30.104,107.574 30.104,105.041 31.666,103.479 Z M257.94,44.0819 C256.378,42.5198 253.845,42.5198 252.283,44.0819 C250.721,45.644 250.721,48.1766 252.283,49.7387 L310.266,107.721 C311.828,109.284 314.361,109.284 315.923,107.721 C317.485,106.159 317.485,103.627 315.923,102.065 L257.94,44.0819 Z M188.644,107.721 C190.206,106.159 192.739,106.159 194.301,107.721 L252.284,165.704 C253.846,167.266 253.846,169.799 252.284,171.361 C250.722,172.923 248.189,172.923 246.627,171.361 L188.644,113.378 C187.082,111.816 187.082,109.284 188.644,107.721 Z M105.205,196.817 C103.643,195.255 101.111,195.255 99.549,196.817 C97.987,198.379 97.987,200.912 99.549,202.474 L157.531,260.457 C159.093,262.019 161.626,262.019 163.188,260.457 C164.75,258.894 164.75,256.362 163.188,254.8 L105.205,196.817 Z" fill="#EBF6FC"></path>
</svg>
